# xmcd
#
# Track frame offsets:
#	150
#	15065
#	27020
#	40432
#	54007
#	66487
#	78652
#	92490
#	108077
#	123190
#	137410
#	151062
#	165845
#	180945
#	195400
#
# Disc length: 2840 seconds
# Revision: 0
# Processed by: cddbd v1.5.2PL0 Copyright (c) Steve Scherf et al.
# Submitted via: dBpowerAMP V12.0
#
DISCID=9b0b160f
DTITLE=Ginny Hawker and Kay Justice - Bristol
DYEAR=1999
DGENRE=Folk
TTITLE0=I Loved You Better Than You Knew
TTITLE1=Gently Lead Me
TTITLE2=I Never Loved But One
TTITLE3=Amber Tresses
TTITLE4=Walking in the King's Highway
TTITLE5=Midnight on the Stormy Deep
TTITLE6=Look Away from the Cross
TTITLE7=The Birds Were Singing of You
TTITLE8=Broken Hearted Lover
TTITLE9=On the Rock Where Moses Stood
TTITLE10=Happy or Lonesome
TTITLE11=Waves on the Sea
TTITLE12=Grave on a Green Hillside
TTITLE13=Evening Bells Are Ringing
TTITLE14=Sunshine in the Shadows
EXTD=
EXTT0=
EXTT1=
EXTT2=
EXTT3=
EXTT4=
EXTT5=
EXTT6=
EXTT7=
EXTT8=
EXTT9=
EXTT10=
EXTT11=
EXTT12=
EXTT13=
EXTT14=
PLAYORDER=
